<?xml version="1.0" standalone="no"?>
<!DOCTYPE svg PUBLIC "-//W3C//DTD SVG 20010904//EN"
 "http://www.w3.org/TR/2001/REC-SVG-20010904/DTD/svg10.dtd">
<svg version="1.0" xmlns="http://www.w3.org/2000/svg"
 width="260.000000pt" height="260.000000pt" viewBox="0 0 260.000000 260.000000"
 preserveAspectRatio="xMidYMid meet">
<metadata>
Created by potrace 1.11, written by Peter Selinger 2001-2013
</metadata>
<g transform="translate(0.000000,260.000000) scale(0.100000,-0.100000)"
fill="#000000" stroke="none">
<path d="M773 2383 c7 -11 -24 -14 -125 -14 -10 0 -18 -4 -18 -8 0 -19 -92
-21 -115 -2 -20 16 -20 16 -1 -6 10 -13 23 -20 29 -16 5 3 7 1 4 -5 -7 -10
-47 -5 -47 7 0 3 -15 7 -33 9 -47 3 -60 6 -76 16 -10 6 -12 5 -7 -2 4 -7 1
-12 -8 -12 -8 0 -17 6 -19 13 -3 7 -6 4 -6 -7 -1 -15 -4 -16 -16 -6 -9 7 -18
10 -22 6 -3 -3 0 -6 8 -6 10 -1 9 -4 -4 -11 -9 -5 -22 -7 -29 -3 -6 4 -8 3 -5
-3 10 -17 -24 -25 -41 -11 -13 11 -14 11 -8 -1 6 -9 -3 -24 -30 -47 -20 -19
-41 -34 -46 -34 -4 0 -5 -6 -2 -14 3 -8 -4 -24 -15 -35 -12 -12 -17 -21 -12
-21 10 0 2 -48 -10 -56 -4 -2 -4 -16 1 -29 5 -14 6 -25 2 -25 -4 0 -7 -20 -7
-45 0 -25 3 -45 8 -45 4 0 7 -7 7 -15 0 -8 -6 -15 -12 -15 -9 0 -10 -3 -2 -8
20 -13 45 -70 26 -58 -5 3 -9 -1 -9 -9 0 -8 5 -13 11 -12 6 1 10 -6 8 -17 -2
-10 1 -15 6 -12 6 3 13 -1 16 -10 3 -8 2 -12 -3 -9 -5 3 -13 0 -17 -6 -4 -7
-3 -9 4 -5 14 8 45 -23 38 -40 -3 -7 0 -16 6 -20 7 -4 8 -3 4 4 -4 7 -3 12 2
12 10 0 26 -29 24 -42 -1 -5 2 -7 7 -5 5 1 10 -2 12 -8 1 -5 9 -16 18 -23 10
-9 11 -11 2 -6 -9 4 -5 -6 8 -25 13 -17 20 -39 17 -47 -3 -8 -2 -12 4 -9 6 3
10 1 10 -4 0 -6 -6 -11 -12 -11 -10 0 -9 -3 1 -9 8 -5 10 -14 6 -21 -5 -9 -4
-11 3 -6 7 4 12 2 12 -3 0 -6 -6 -11 -12 -11 -7 0 -5 -5 6 -11 15 -9 16 -13 5
-20 -10 -6 -11 -9 -1 -9 6 0 12 -5 12 -11 0 -5 -4 -8 -9 -4 -5 3 -13 1 -16 -5
-4 -6 -1 -9 6 -8 20 5 28 -45 10 -60 -14 -11 -14 -11 2 -6 13 5 17 1 17 -20 0
-19 -4 -24 -17 -20 -13 3 -12 1 2 -6 21 -11 21 -18 29 -235 0 -16 5 -33 11
-37 7 -5 6 -14 -2 -27 -11 -17 -10 -19 3 -14 8 3 14 2 12 -3 -6 -18 36 -109
66 -142 17 -19 30 -38 29 -42 -1 -3 3 -7 10 -8 37 -4 106 -29 100 -37 -5 -4
-2 -4 6 0 8 5 33 9 55 10 23 1 54 6 70 10 23 6 27 5 21 -5 -5 -9 -4 -11 4 -6
6 4 9 11 6 16 -2 4 10 15 28 24 17 8 28 16 23 16 -5 0 3 11 18 25 14 13 26 27
26 31 0 4 8 13 18 21 9 8 11 11 4 8 -9 -5 -6 7 7 33 11 22 17 42 14 46 -4 3
-1 6 6 6 7 0 10 4 7 8 -2 4 0 29 6 55 9 46 11 48 39 43 17 -2 27 0 23 5 -3 5
-10 7 -15 4 -5 -4 -9 -1 -9 6 0 6 8 9 20 6 11 -3 20 -1 20 5 0 5 5 6 10 3 6
-3 10 -1 10 6 0 7 3 10 6 6 4 -3 13 1 21 9 14 13 17 13 28 -2 11 -15 12 -14
11 7 -1 17 4 24 16 23 10 -1 16 3 15 8 -1 5 6 15 16 21 26 16 87 77 87 87 0 4
11 19 25 34 13 14 22 26 19 26 -3 0 1 10 8 23 7 12 11 25 10 30 -1 4 4 7 12 7
8 0 18 4 21 10 3 6 -1 7 -10 4 -13 -5 -14 -2 -5 20 5 14 7 26 4 26 -4 0 -2 6
3 13 5 6 8 22 7 35 -1 13 3 21 10 19 6 -3 10 -11 8 -18 -2 -8 0 -10 4 -6 4 4
9 15 10 23 1 9 0 13 -3 10 -4 -3 -12 -1 -20 5 -11 10 -11 16 3 37 9 13 12 22
6 18 -14 -8 -21 15 -11 39 4 11 8 14 8 6 1 -8 4 -11 8 -7 5 4 1 13 -8 19 -8 7
-16 27 -16 45 -1 17 -2 33 -3 35 -1 1 -3 11 -4 22 -2 11 -5 27 -7 35 -2 8 2
14 9 12 8 -1 11 2 7 8 -3 6 -11 8 -16 5 -5 -4 -9 -2 -9 4 0 5 6 12 13 14 7 3
4 6 -6 6 -14 1 -17 6 -12 21 4 11 2 20 -4 20 -6 0 -11 7 -11 16 0 9 5 13 13 9
6 -4 5 -1 -4 7 -9 7 -15 21 -13 31 1 9 -2 15 -7 11 -9 -5 -13 9 -10 35 2 8 -2
10 -10 5 -9 -5 -11 -1 -7 14 4 12 3 20 -2 17 -6 -4 -70 88 -70 102 0 2 -8 12
-18 21 -10 10 -13 14 -7 10 7 -4 12 -2 12 5 0 7 -8 14 -18 14 -10 1 -31 15
-48 31 -25 23 -28 31 -18 42 10 12 9 12 -6 1 -15 -12 -20 -11 -33 5 -9 10 -13
12 -9 4 4 -10 2 -9 -8 3 -8 9 -21 17 -30 17 -9 0 -19 5 -22 10 -3 6 -15 10
-27 10 -18 0 -19 2 -7 18 13 16 13 16 -7 -1 -11 -9 -24 -14 -27 -10 -4 3 -21
8 -39 10 -17 2 -38 9 -47 16 -10 8 -13 8 -8 0z m-18 -224 c-4 -5 -1 -9 4 -9 6
0 11 4 11 8 0 4 9 8 20 8 11 0 20 -4 20 -9 0 -4 5 -5 10 -2 6 3 10 0 11 -7 0
-9 2 -9 5 -1 7 15 49 3 113 -33 36 -21 48 -33 45 -47 -3 -16 -1 -17 14 -6 9 7
14 10 10 5 -4 -5 1 -16 10 -25 12 -11 13 -13 2 -7 -8 5 -1 -4 15 -20 17 -16
31 -36 33 -44 2 -8 9 -18 15 -22 7 -4 8 -8 3 -8 -5 0 -4 -6 1 -12 18 -24 23
-47 9 -42 -8 3 -17 0 -22 -7 -4 -7 -3 -10 4 -6 18 12 44 -4 39 -24 -3 -11 -1
-19 5 -19 6 0 8 -13 6 -30 -3 -16 -2 -30 2 -30 12 0 11 -73 -2 -81 -8 -5 -8
-9 -2 -9 14 0 6 -92 -10 -102 -6 -4 -7 -8 -3 -8 5 0 -2 -18 -14 -40 -12 -21
-26 -37 -30 -34 -5 3 -6 -2 -3 -10 3 -9 1 -16 -5 -16 -6 0 -11 -7 -11 -15 0
-8 -4 -15 -10 -15 -5 0 -7 6 -4 14 3 8 1 17 -4 20 -5 3 -8 -6 -6 -19 1 -16 -5
-30 -19 -40 -28 -20 -38 -19 -31 3 5 13 4 14 -4 3 -6 -8 -8 -21 -4 -29 3 -10
1 -13 -6 -8 -7 4 -12 2 -12 -4 0 -7 -7 -10 -15 -6 -8 3 -15 2 -15 -3 0 -8 -9
-10 -55 -14 -14 -1 -25 -5 -25 -9 0 -4 -7 -5 -15 -2 -8 4 -13 9 -10 13 2 4 -2
8 -10 8 -8 0 -12 -4 -9 -9 10 -15 -9 -8 -23 10 -8 9 -12 11 -8 5 4 -9 -1 -12
-16 -10 -17 1 -22 -4 -24 -23 -1 -14 3 -28 9 -32 6 -5 7 -8 1 -8 -6 0 -9 -22
-8 -50 1 -28 -1 -48 -5 -46 -4 2 -7 -11 -6 -31 2 -25 -2 -33 -12 -29 -7 3 -16
1 -19 -5 -4 -5 -3 -9 2 -8 22 4 31 -3 26 -21 -3 -11 -12 -21 -19 -21 -27 -3
-32 -4 -39 -11 -4 -4 5 -5 20 -2 26 5 27 3 14 -13 -7 -10 -15 -20 -16 -22 -1
-2 -10 2 -20 10 -9 8 -14 9 -10 2 4 -6 4 -13 0 -16 -5 -2 -3 -2 4 -1 7 2 15
-2 19 -9 4 -7 4 -9 -1 -5 -4 4 -15 2 -23 -5 -12 -10 -16 -9 -20 1 -3 10 -7 10
-20 0 -13 -11 -15 -10 -9 4 3 10 2 20 -4 23 -5 4 -8 1 -7 -6 2 -6 -3 -14 -10
-16 -7 -3 -12 -1 -11 4 4 21 -2 34 -13 27 -7 -4 -8 -3 -4 4 4 7 2 12 -3 12 -6
0 -10 3 -10 8 1 4 0 9 -1 12 -8 18 -6 67 4 79 8 11 8 13 -1 8 -6 -4 -14 -3
-18 3 -3 5 -2 10 3 10 5 0 9 13 8 30 -1 16 -4 30 -8 30 -5 0 -8 5 -8 11 0 5 5
7 12 3 7 -5 8 -3 2 7 -4 8 -9 23 -10 34 -1 11 -5 30 -8 43 -3 12 -1 20 3 18 4
-3 8 1 8 9 0 8 -4 12 -9 9 -4 -3 -8 7 -8 21 0 14 4 24 10 20 5 -3 3 7 -5 22
-11 21 -12 29 -2 35 8 5 8 8 1 8 -7 0 -15 21 -19 48 -4 26 -13 64 -20 84 -9
26 -9 36 -1 31 6 -4 5 1 -3 10 -7 9 -10 17 -5 17 5 0 5 4 -1 8 -5 4 -16 18
-23 31 -11 19 -11 22 0 15 7 -4 10 -4 6 1 -4 4 -2 15 4 24 10 13 10 14 -2 4
-21 -19 -29 -16 -25 8 3 12 2 19 -2 15 -3 -3 -13 4 -21 15 -12 18 -13 23 -1
31 10 7 8 7 -8 3 -21 -6 -28 2 -24 28 0 4 -5 7 -12 7 -7 0 -22 17 -32 38 -29
56 -30 58 -12 43 22 -18 22 -7 0 15 -20 20 -25 56 -9 67 8 6 8 10 0 13 -16 7
-5 44 13 44 8 0 11 5 8 10 -3 6 1 10 9 10 9 0 16 4 16 8 0 15 72 32 90 22 10
-5 20 -6 24 -3 3 3 6 1 6 -6 0 -7 4 -10 9 -6 6 3 14 -3 20 -12 6 -10 11 -13
11 -8 0 6 4 4 9 -4 5 -8 20 -16 33 -18 16 -2 19 0 9 6 -10 6 -5 12 19 25 18 8
37 13 43 9 6 -4 7 -1 2 7 -6 10 -4 12 8 7 9 -3 18 1 21 10 4 10 14 13 30 9 14
-3 27 -3 30 2 2 4 14 8 25 9 12 1 19 -2 16 -8z"/>
<path d="M410 2119 c0 -5 5 -7 10 -4 6 3 10 8 10 11 0 2 -4 4 -10 4 -5 0 -10
-5 -10 -11z"/>
<path d="M886 2122 c-2 -4 4 -8 14 -8 10 0 16 4 14 8 -3 4 -9 8 -14 8 -5 0
-11 -4 -14 -8z"/>
<path d="M953 2085 c0 -7 6 -11 14 -8 7 3 13 6 13 8 0 2 -6 5 -13 8 -8 3 -14
-1 -14 -8z"/>
<path d="M310 2071 c0 -6 4 -12 8 -15 5 -3 9 1 9 9 0 8 -4 15 -9 15 -4 0 -8
-4 -8 -9z"/>
<path d="M313 2005 c0 -8 4 -15 9 -15 4 0 8 4 8 9 0 6 -4 12 -8 15 -5 3 -9 -1
-9 -9z"/>
<path d="M353 1895 c0 -8 4 -12 9 -9 5 3 6 10 3 15 -9 13 -12 11 -12 -6z"/>
<path d="M836 1873 c-1 -1 -13 -3 -28 -5 -15 -2 -31 -8 -35 -13 -5 -4 -1 -4 7
0 13 8 13 7 1 -9 -11 -13 -16 -14 -23 -4 -6 8 -7 5 -3 -11 5 -16 4 -21 -4 -17
-7 5 -9 1 -5 -9 4 -8 2 -21 -3 -28 -10 -13 -10 -14 1 -74 4 -24 12 -46 17 -49
6 -4 6 -11 -1 -19 -9 -11 -7 -12 9 -8 24 6 27 -6 9 -27 -11 -12 -10 -12 5 -1
15 12 20 11 37 -4 11 -10 20 -14 20 -10 0 5 7 0 16 -11 8 -10 12 -13 8 -5 -5
11 -2 13 14 9 12 -4 25 -2 28 4 3 5 15 7 26 5 11 -3 18 -3 15 0 -6 5 35 49 43
46 3 -1 7 23 8 53 1 30 3 58 4 62 1 4 -4 18 -11 31 -7 13 -8 21 -3 17 6 -3 14
-1 18 5 4 7 3 9 -3 6 -13 -8 -55 27 -45 38 4 5 2 5 -5 1 -6 -3 -14 -2 -18 4
-3 5 -15 10 -26 10 -11 0 -18 3 -16 8 4 6 -51 11 -57 5z"/>
<path d="M1105 1559 c-4 -6 -5 -12 -2 -15 2 -3 7 2 10 11 7 17 1 20 -8 4z"/>
<path d="M500 1546 c0 -2 8 -10 18 -17 15 -13 16 -12 3 4 -13 16 -21 21 -21
13z"/>
<path d="M550 1110 c-9 -6 -10 -10 -3 -10 6 0 15 5 18 10 8 12 4 12 -15 0z"/>
<path d="M1075 2280 c-3 -5 -1 -10 4 -10 6 0 11 5 11 10 0 6 -2 10 -4 10 -3 0
-8 -4 -11 -10z"/>
<path d="M2134 2201 c-2 -3 -12 -6 -20 -7 -51 -8 -59 -38 -17 -68 14 -11 23
-14 19 -8 -5 8 3 12 23 12 18 0 31 -5 31 -12 0 -10 2 -10 8 0 5 7 16 10 25 6
9 -3 15 -9 13 -13 -3 -4 8 -6 22 -5 35 2 85 -23 76 -38 -5 -7 -3 -8 5 -4 12 8
70 -40 71 -57 0 -5 7 -15 16 -24 8 -9 13 -22 10 -29 -3 -8 -1 -14 5 -14 6 0 9
-7 5 -15 -3 -8 0 -15 7 -15 8 0 6 -4 -3 -10 -10 -6 -11 -10 -2 -10 6 0 12 -7
12 -16 0 -9 -5 -13 -12 -9 -7 4 -5 0 5 -8 19 -16 24 -32 6 -21 -7 4 -6 -3 2
-17 13 -26 13 -27 -4 -48 -9 -12 -9 -13 1 -7 6 4 12 3 12 -2 0 -5 11 -12 25
-14 22 -5 25 -1 33 36 4 23 4 61 0 85 -4 24 -5 47 -2 52 3 5 0 9 -5 9 -6 0
-11 11 -11 24 0 14 -4 28 -10 31 -5 3 -10 13 -10 21 0 8 -9 24 -20 36 -11 12
-20 28 -20 37 0 8 -3 12 -6 8 -8 -8 -34 18 -34 33 0 6 -4 9 -9 6 -5 -3 -20 3
-34 14 -14 11 -28 20 -30 20 -3 0 -18 5 -34 12 -34 13 -39 15 -81 16 -18 1
-31 6 -28 10 5 8 -32 11 -40 3z"/>
<path d="M1190 2116 c0 -8 4 -17 9 -20 5 -4 7 3 4 14 -6 23 -13 26 -13 6z"/>
<path d="M1985 2033 c-11 -3 -27 -7 -35 -10 -8 -3 -19 -5 -24 -4 -5 1 -5 -4 1
-11 6 -7 11 -17 10 -23 0 -5 8 -12 19 -14 10 -2 22 -8 26 -15 6 -8 8 -8 8 1 0
7 9 10 23 7 12 -3 32 -7 43 -9 33 -5 65 -25 59 -36 -4 -5 -3 -9 2 -8 20 4 33
-2 33 -15 0 -8 5 -16 12 -18 6 -2 11 -18 11 -36 0 -17 3 -29 7 -27 4 2 7 -10
8 -27 1 -37 13 -51 38 -46 26 4 32 104 10 146 -8 16 -12 33 -8 37 4 5 1 5 -5
1 -7 -4 -14 -2 -14 3 -1 6 -2 17 -3 24 0 6 -8 12 -16 12 -8 1 -14 6 -13 13 2
6 -4 9 -12 6 -8 -4 -15 -1 -15 5 0 6 -7 11 -16 11 -9 0 -23 8 -31 18 -8 9 -12
11 -8 5 3 -7 1 -13 -4 -13 -6 0 -11 5 -11 11 0 5 -4 8 -9 5 -4 -3 -21 -2 -37
2 -16 5 -38 7 -49 5z"/>
<path d="M1750 1787 c0 -5 -10 -5 -21 -2 -16 6 -20 4 -13 -6 6 -10 3 -10 -11
1 -10 8 -16 10 -12 4 4 -7 -4 -19 -18 -28 -22 -15 -24 -15 -18 0 5 14 3 13
-15 -2 -24 -20 -29 -30 -10 -18 7 4 8 3 4 -5 -4 -6 -17 -9 -29 -6 -12 2 -16 2
-9 -1 10 -5 10 -9 1 -20 -10 -12 -14 -12 -21 -2 -6 8 -7 4 -3 -11 6 -20 4 -23
-9 -18 -11 4 -15 3 -11 -4 8 -12 -24 -51 -36 -43 -5 3 -7 -1 -4 -8 3 -7 -5
-24 -16 -38 -11 -14 -17 -18 -13 -10 7 13 5 13 -9 1 -18 -15 -23 -26 -7 -16 6
3 10 3 10 0 0 -13 -34 -65 -43 -65 -4 0 -5 -4 -2 -10 3 -5 1 -10 -4 -10 -6 0
-10 -3 -10 -7 3 -20 -2 -26 -11 -13 -8 12 -10 9 -8 -10 2 -14 -1 -24 -7 -23
-5 1 -11 -10 -11 -23 -1 -13 -10 -37 -20 -52 -10 -15 -19 -29 -19 -32 -4 -26
-18 -49 -27 -44 -7 4 -8 2 -4 -5 4 -6 -4 -36 -17 -65 -14 -30 -23 -57 -19 -60
3 -3 0 -6 -6 -6 -6 0 -9 -6 -6 -14 3 -8 0 -17 -5 -21 -6 -3 -9 -11 -6 -16 4
-5 -1 -12 -10 -15 -13 -6 -14 -8 -3 -15 11 -8 11 -11 -1 -18 -7 -5 -11 -13 -7
-19 3 -6 -2 -15 -11 -21 -10 -6 -13 -11 -8 -11 7 0 9 -15 7 -35 -2 -19 -7 -33
-11 -31 -4 3 -6 -8 -5 -25 1 -16 -2 -31 -7 -34 -4 -3 -6 -20 -2 -37 4 -21 3
-29 -5 -24 -6 3 -14 1 -18 -5 -4 -7 -3 -9 4 -5 6 3 13 2 17 -4 3 -5 2 -10 -2
-10 -5 0 -7 -16 -5 -36 4 -29 2 -35 -9 -29 -11 6 -12 5 -1 -6 6 -7 12 -21 12
-30 0 -10 -6 -20 -12 -22 -7 -3 -4 -6 6 -6 20 -1 20 -1 0 -17 -10 -8 -14 -13
-7 -10 13 7 28 -28 18 -44 -3 -5 -2 -10 2 -10 15 0 31 -78 19 -90 -8 -8 -6 -9
8 -4 13 5 17 4 12 -4 -4 -7 -2 -12 6 -12 9 0 9 -3 -2 -10 -13 -8 -12 -10 4
-10 11 0 16 -3 13 -6 -3 -4 5 -15 18 -26 14 -11 25 -26 25 -34 0 -9 5 -12 12
-8 8 5 9 2 4 -12 -4 -10 -4 -15 0 -12 11 11 45 -12 38 -25 -4 -7 -4 -9 1 -5
10 9 67 -20 60 -31 -3 -5 3 -7 13 -4 10 2 31 -1 47 -8 17 -7 38 -13 47 -13 9
-1 19 -4 23 -8 4 -4 14 -4 23 -1 8 4 13 2 10 -3 -4 -5 25 -9 68 -8 71 1 74 0
69 -20 -4 -13 1 -10 12 9 13 24 18 26 21 13 2 -10 8 -18 13 -18 5 0 8 5 6 11
-2 12 29 21 75 23 14 1 24 4 21 9 -2 4 -1 7 4 8 4 0 18 2 31 5 17 3 21 0 16
-8 -4 -8 -3 -10 2 -5 5 5 10 13 10 18 1 5 2 12 3 15 0 4 8 1 16 -6 13 -11 14
-10 10 2 -4 11 3 19 23 26 16 5 44 24 61 41 33 32 47 40 35 19 -4 -8 -3 -10 2
-5 5 5 9 12 10 15 0 4 4 15 8 25 10 22 27 22 19 0 -3 -10 -3 -15 1 -11 4 3 9
12 10 20 7 30 19 49 31 44 9 -3 12 3 10 20 -1 16 2 24 10 20 8 -3 10 4 7 20
-3 18 0 24 14 24 16 0 17 2 4 10 -11 7 -11 10 -2 10 7 0 10 5 7 10 -3 6 -2 10
3 10 6 0 10 6 9 13 -1 35 4 58 12 52 5 -3 13 0 17 6 4 7 3 9 -4 5 -6 -3 -13
-2 -17 4 -3 5 -1 10 6 10 7 0 9 3 6 7 -4 3 1 12 11 20 16 12 16 13 0 7 -14 -5
-18 -1 -18 16 0 17 4 21 18 16 14 -5 13 -3 -3 9 -17 14 -18 17 -5 25 10 7 11
10 3 10 -7 0 -13 7 -13 16 0 9 5 12 13 8 6 -4 5 1 -4 12 -9 10 -15 29 -14 41
1 12 -2 20 -5 18 -4 -3 -10 8 -13 23 -3 15 -28 51 -55 79 -38 40 -47 54 -38
64 8 10 7 10 -6 0 -19 -14 -48 -8 -48 10 0 8 6 7 18 -2 16 -13 16 -12 3 4 -14
18 -16 18 -28 1 -12 -17 -13 -17 -13 2 0 16 -2 17 -10 4 -7 -10 -12 -12 -17
-4 -5 6 -17 10 -28 8 -12 -2 -27 6 -38 19 -14 18 -16 18 -11 3 6 -16 4 -17
-14 -7 -26 14 -35 28 -23 36 6 3 8 12 5 19 -3 7 1 20 8 27 7 8 15 23 16 34 5
23 22 36 36 28 5 -3 6 -1 2 6 -4 6 -11 9 -15 6 -5 -2 -1 11 7 30 9 19 20 31
26 28 5 -4 7 1 3 10 -3 10 -2 17 3 17 5 0 7 6 4 14 -3 8 -1 17 4 20 6 3 8 15
5 26 -3 12 0 20 6 20 7 0 10 4 7 9 -3 4 -1 23 5 42 11 39 14 142 4 179 -4 14
-8 35 -9 47 -2 13 -6 26 -11 30 -4 5 -5 1 0 -7 6 -11 5 -12 -4 -4 -7 6 -14 20
-15 30 -2 11 -10 18 -20 16 -9 -2 -16 2 -16 8 0 5 -3 10 -7 9 -14 -2 -53 13
-53 21 0 4 -15 8 -32 9 -18 1 -50 3 -70 4 -21 1 -38 -1 -38 -6z m85 -237 c-4
-6 -2 -10 4 -10 5 0 8 -17 7 -37 -2 -24 -7 -37 -15 -35 -8 1 -10 -2 -5 -10 15
-23 13 -41 -4 -56 -9 -7 -11 -11 -4 -7 8 4 6 -9 -7 -44 -10 -27 -16 -52 -13
-55 3 -4 -2 -6 -11 -6 -9 0 -17 -5 -17 -11 0 -5 6 -7 13 -3 9 6 9 5 0 -8 -7
-8 -9 -19 -5 -23 4 -5 -2 -5 -12 -1 -16 6 -17 4 -5 -10 11 -14 11 -18 -6 -30
-11 -8 -14 -14 -6 -14 10 0 9 -7 -4 -26 -9 -15 -11 -23 -4 -19 8 5 10 4 5 -4
-4 -6 -10 -23 -12 -38 -3 -15 -11 -34 -17 -42 -10 -12 -9 -13 3 -6 12 7 13 6
4 -6 -6 -8 -10 -25 -7 -39 2 -16 -3 -30 -14 -39 -17 -13 -17 -13 0 -8 9 4 17
4 17 0 0 -3 -8 -12 -17 -20 -17 -14 -17 -14 0 -9 14 4 16 1 13 -20 -3 -15 -2
-23 1 -20 4 4 17 -10 30 -31 13 -21 23 -31 23 -23 0 12 15 15 78 15 42 0 83
-4 91 -9 10 -6 12 -6 7 2 -17 28 57 -13 81 -44 25 -34 25 -35 7 -57 -16 -18
-16 -19 -1 -8 9 7 17 11 17 8 0 -3 3 -13 7 -23 5 -13 3 -15 -8 -9 -11 7 -11 5
1 -10 14 -17 13 -18 -3 -12 -13 5 -16 3 -10 -6 11 -18 14 -49 4 -43 -5 3 -8
-6 -8 -21 0 -15 -6 -29 -12 -31 -6 -2 -9 -8 -5 -13 3 -5 1 -9 -5 -9 -5 0 -13
-9 -16 -20 -4 -11 -11 -18 -16 -15 -5 4 -9 -2 -9 -12 0 -15 -2 -16 -10 -3 -8
13 -10 13 -10 -2 0 -17 -40 -47 -40 -31 0 4 -7 0 -15 -11 -7 -10 -18 -15 -24
-11 -6 3 -11 1 -11 -4 0 -6 -4 -11 -10 -11 -5 0 -7 6 -4 14 3 8 0 17 -7 22 -7
4 -10 3 -6 -4 19 -29 -17 -50 -50 -29 -9 6 -11 3 -7 -7 6 -16 -11 -17 -35 -2
-9 6 -12 5 -7 -2 4 -6 -1 -10 -13 -9 -11 0 -17 5 -15 9 3 4 0 8 -5 8 -6 0 -11
-4 -11 -10 0 -5 -5 -10 -11 -10 -5 0 -7 6 -3 13 5 9 4 9 -5 1 -14 -13 -104 4
-95 17 3 5 -2 6 -10 3 -9 -4 -38 8 -66 26 -46 30 -55 41 -51 63 1 5 -3 6 -8 2
-6 -3 -20 13 -31 35 -17 33 -19 45 -9 56 10 12 9 13 -7 7 -17 -6 -18 -5 -4 12
8 10 10 16 4 12 -16 -9 -25 28 -10 44 8 9 8 10 -1 5 -8 -5 -13 -1 -13 9 0 9 5
13 11 9 8 -4 8 -1 1 13 -12 21 -11 41 1 61 5 6 4 12 -1 12 -6 0 -8 9 -5 20 3
11 9 18 13 15 4 -3 14 3 21 13 13 15 12 16 -3 4 -11 -9 -18 -10 -23 -2 -3 5
-2 10 3 10 6 0 8 9 5 20 -3 11 0 20 6 20 6 0 8 7 4 17 -5 12 -3 14 8 8 11 -6
11 -5 3 4 -13 14 -7 51 8 51 5 0 7 4 4 8 -3 5 1 20 9 35 8 15 12 27 9 27 -6 0
29 84 38 91 5 3 8 10 7 15 -4 24 3 34 24 35 16 1 17 3 5 6 -16 4 -16 7 -3 27
8 12 12 26 8 29 -3 4 -1 7 5 7 6 0 16 16 22 35 6 19 16 33 21 30 5 -4 9 -3 10
2 3 29 9 48 18 51 6 2 11 9 11 16 0 7 7 21 16 32 8 10 12 13 8 5 -5 -9 -3 -12
5 -7 6 4 9 11 7 15 -8 12 24 52 36 45 6 -4 8 -3 5 3 -4 6 5 21 20 34 14 13 23
17 19 9 -5 -11 -4 -11 6 1 7 9 22 19 33 21 25 6 78 -19 70 -32z"/>
<path d="M1774 1569 c-3 -6 -1 -16 5 -22 9 -9 10 -7 5 7 -6 15 -4 17 6 11 9
-5 11 -4 6 3 -9 15 -13 15 -22 1z"/>
<path d="M1711 1524 c0 -11 3 -14 6 -6 3 7 2 16 -1 19 -3 4 -6 -2 -5 -13z"/>
<path d="M1670 1496 c0 -2 8 -10 18 -17 15 -13 16 -12 3 4 -13 16 -21 21 -21
13z"/>
<path d="M1786 1358 c3 -5 10 -6 15 -3 13 9 11 12 -6 12 -8 0 -12 -4 -9 -9z"/>
<path d="M1770 1319 c0 -5 5 -7 10 -4 6 3 10 8 10 11 0 2 -4 4 -10 4 -5 0 -10
-5 -10 -11z"/>
<path d="M1560 1300 c-9 -6 -10 -10 -3 -10 6 0 15 5 18 10 8 12 4 12 -15 0z"/>
<path d="M1537 1255 c-4 -8 -3 -16 1 -19 4 -3 9 4 9 15 2 23 -3 25 -10 4z"/>
<path d="M1469 1123 c-13 -16 -12 -17 4 -4 16 13 21 21 13 21 -2 0 -10 -8 -17
-17z"/>
<path d="M1435 1000 c-3 -5 -1 -10 4 -10 6 0 11 5 11 10 0 6 -2 10 -4 10 -3 0
-8 -4 -11 -10z"/>
<path d="M1833 835 c0 -8 4 -12 9 -9 5 3 6 10 3 15 -9 13 -12 11 -12 -6z"/>
<path d="M1971 833 c-1 -17 16 -25 25 -12 4 7 3 9 -4 5 -5 -3 -13 0 -15 6 -4
9 -6 10 -6 1z"/>
<path d="M1380 806 c0 -2 7 -7 16 -10 8 -3 12 -2 9 4 -6 10 -25 14 -25 6z"/>
<path d="M2000 640 c-9 -6 -10 -10 -3 -10 6 0 15 5 18 10 8 12 4 12 -15 0z"/>
<path d="M1975 560 c3 -5 8 -10 11 -10 2 0 4 5 4 10 0 6 -5 10 -11 10 -5 0 -7
-4 -4 -10z"/>
<path d="M1915 510 c3 -5 8 -10 11 -10 2 0 4 5 4 10 0 6 -5 10 -11 10 -5 0 -7
-4 -4 -10z"/>
<path d="M1620 456 c7 -7 13 -7 20 0 6 6 3 10 -10 10 -13 0 -16 -4 -10 -10z"/>
<path d="M1910 1797 c0 -2 6 -10 14 -16 11 -9 16 -9 22 1 4 7 4 10 -1 6 -4 -4
-14 -3 -22 3 -7 6 -13 9 -13 6z"/>
<path d="M1436 1523 c-6 -14 -5 -15 5 -6 7 7 10 15 7 18 -3 3 -9 -2 -12 -12z"/>
<path d="M2027 1419 c7 -7 15 -10 18 -7 3 3 -2 9 -12 12 -14 6 -15 5 -6 -5z"/>
<path d="M1235 1359 c-4 -6 -5 -12 -2 -15 2 -3 7 2 10 11 7 17 1 20 -8 4z"/>
<path d="M1910 1146 c0 -2 7 -7 16 -10 8 -3 12 -2 9 4 -6 10 -25 14 -25 6z"/>
<path d="M1915 1109 c-4 -6 -5 -12 -2 -15 2 -3 7 2 10 11 7 17 1 20 -8 4z"/>
<path d="M910 1096 c0 -2 8 -10 18 -17 15 -13 16 -12 3 4 -13 16 -21 21 -21
13z"/>
<path d="M2156 1007 c3 -10 9 -15 12 -12 3 3 0 11 -7 18 -10 9 -11 8 -5 -6z"/>
<path d="M1195 940 c-3 -5 -1 -10 4 -10 6 0 11 5 11 10 0 6 -2 10 -4 10 -3 0
-8 -4 -11 -10z"/>
<path d="M1159 833 c-13 -16 -12 -17 4 -4 9 7 17 15 17 17 0 8 -8 3 -21 -13z"/>
<path d="M636 778 c3 -5 10 -6 15 -3 13 9 11 12 -6 12 -8 0 -12 -4 -9 -9z"/>
</g>
</svg>
